<mxfile host="app.diagrams.net" modified="2024-01-16T02:43:43.880Z" agent="Mozilla/5.0 (Windows NT 6.1; Win64; x64; rv:109.0) Gecko/20100101 Firefox/115.0" etag="VysKF_b4QWvti7y6xkY6" version="22.1.18" type="device">
  <diagram name="Page-1" id="llQtCOgp2FeNaMTy6wfQ">
    <mxGraphModel dx="880" dy="470" grid="1" gridSize="10" guides="1" tooltips="1" connect="1" arrows="1" fold="1" page="1" pageScale="1" pageWidth="850" pageHeight="1100" math="0" shadow="0">
      <root>
        <mxCell id="0" />
        <mxCell id="1" parent="0" />
        <mxCell id="B_6-qSYbH0Raoq7r8s27-2" value="U_ID&amp;nbsp; | Name&amp;nbsp; |&amp;nbsp; Email" style="rounded=1;whiteSpace=wrap;html=1;" parent="1" vertex="1">
          <mxGeometry x="40" y="40" width="190" height="40" as="geometry" />
        </mxCell>
        <mxCell id="B_6-qSYbH0Raoq7r8s27-3" value="User-Schema" style="text;html=1;strokeColor=none;fillColor=none;align=center;verticalAlign=middle;whiteSpace=wrap;rounded=0;" parent="1" vertex="1">
          <mxGeometry x="70" y="80" width="95" height="30" as="geometry" />
        </mxCell>
        <mxCell id="B_6-qSYbH0Raoq7r8s27-4" value="G_ID&amp;nbsp; | Name&amp;nbsp; |&amp;nbsp; CreatedBy&amp;nbsp; | CreatedOn" style="rounded=1;whiteSpace=wrap;html=1;" parent="1" vertex="1">
          <mxGeometry x="280" y="40" width="270" height="40" as="geometry" />
        </mxCell>
        <mxCell id="B_6-qSYbH0Raoq7r8s27-5" value="Group-Schema" style="text;html=1;strokeColor=none;fillColor=none;align=center;verticalAlign=middle;whiteSpace=wrap;rounded=0;" parent="1" vertex="1">
          <mxGeometry x="367.5" y="80" width="95" height="30" as="geometry" />
        </mxCell>
        <mxCell id="B_6-qSYbH0Raoq7r8s27-7" value="T_ID&amp;nbsp; |&amp;nbsp; Name |&amp;nbsp; G_ID&amp;nbsp; |&amp;nbsp; Paid_By&amp;nbsp; |&amp;nbsp; Amount&amp;nbsp; |&amp;nbsp; Date" style="rounded=1;whiteSpace=wrap;html=1;" parent="1" vertex="1">
          <mxGeometry x="40" y="120" width="300" height="40" as="geometry" />
        </mxCell>
        <mxCell id="B_6-qSYbH0Raoq7r8s27-8" value="GroupMapping-Schema" style="text;html=1;strokeColor=none;fillColor=none;align=center;verticalAlign=middle;whiteSpace=wrap;rounded=0;" parent="1" vertex="1">
          <mxGeometry x="683.75" y="90" width="142.5" height="30" as="geometry" />
        </mxCell>
        <mxCell id="B_6-qSYbH0Raoq7r8s27-10" value="GM_ID&amp;nbsp; | G_ID |&amp;nbsp; Member_Id" style="rounded=1;whiteSpace=wrap;html=1;" parent="1" vertex="1">
          <mxGeometry x="620" y="50" width="270" height="40" as="geometry" />
        </mxCell>
        <mxCell id="B_6-qSYbH0Raoq7r8s27-11" value="Expenses-Schema" style="text;html=1;strokeColor=none;fillColor=none;align=center;verticalAlign=middle;whiteSpace=wrap;rounded=0;" parent="1" vertex="1">
          <mxGeometry x="103.75" y="160" width="142.5" height="30" as="geometry" />
        </mxCell>
        <mxCell id="B_6-qSYbH0Raoq7r8s27-12" value="ED_ID&amp;nbsp; |&amp;nbsp; E_ID&amp;nbsp; |&amp;nbsp; Split_With |&amp;nbsp; Amount&amp;nbsp; |&amp;nbsp; IsSettled" style="rounded=1;whiteSpace=wrap;html=1;" parent="1" vertex="1">
          <mxGeometry x="416" y="120" width="294" height="40" as="geometry" />
        </mxCell>
        <mxCell id="B_6-qSYbH0Raoq7r8s27-13" value="ExpensesDetails-Schema" style="text;html=1;strokeColor=none;fillColor=none;align=center;verticalAlign=middle;whiteSpace=wrap;rounded=0;" parent="1" vertex="1">
          <mxGeometry x="457.88" y="160" width="186.25" height="30" as="geometry" />
        </mxCell>
      </root>
    </mxGraphModel>
  </diagram>
</mxfile>
